<svg width="235" height="128" viewBox="0 0 235 128" fill="none" xmlns="http://www.w3.org/2000/svg">
<path d="M49.7 55H47.4V69H55.4V66.8H49.7V55ZM68.3086 67.16C69.7286 65.74 70.4286 64.02 70.4286 62C70.4286 59.98 69.7286 58.26 68.3086 56.86C66.9086 55.44 65.1886 54.74 63.1686 54.74C61.1486 54.74 59.4286 55.44 58.0086 56.86C56.6086 58.26 55.9086 59.98 55.9086 62C55.9086 64.02 56.6086 65.74 58.0086 67.16C59.4286 68.56 61.1486 69.26 63.1686 69.26C65.1886 69.26 66.9086 68.56 68.3086 67.16ZM59.6286 65.6C58.6886 64.64 58.2086 63.44 58.2086 62C58.2086 60.56 58.6886 59.36 59.6286 58.42C60.5886 57.46 61.7686 56.98 63.1686 56.98C64.5686 56.98 65.7486 57.46 66.6886 58.42C67.6486 59.36 68.1286 60.56 68.1286 62C68.1286 63.44 67.6486 64.64 66.6886 65.6C65.7486 66.54 64.5686 67.02 63.1686 67.02C61.7686 67.02 60.5886 66.54 59.6286 65.6ZM79.5466 61.76V63.82H84.2266C83.8066 65.76 82.1866 67.02 79.7066 67.02C78.1666 67.02 76.9066 66.54 75.9466 65.6C75.0066 64.66 74.5266 63.46 74.5266 62.02C74.5266 60.58 75.0066 59.38 75.9466 58.42C76.8866 57.46 78.1066 56.98 79.5666 56.98C81.3866 56.98 82.9466 57.86 83.6866 59.2L85.6666 58.06C84.4666 56.04 82.1866 54.74 79.5666 54.74C77.4866 54.74 75.7466 55.44 74.3266 56.86C72.9266 58.26 72.2266 59.98 72.2266 62C72.2266 64.04 72.9266 65.76 74.3266 67.16C75.7466 68.56 77.5266 69.26 79.6866 69.26C81.7266 69.26 83.3866 68.66 84.6466 67.44C85.9066 66.22 86.5466 64.64 86.5466 62.72V61.76H79.5466ZM100.749 67.16C102.169 65.74 102.869 64.02 102.869 62C102.869 59.98 102.169 58.26 100.749 56.86C99.3492 55.44 97.6292 54.74 95.6092 54.74C93.5892 54.74 91.8692 55.44 90.4492 56.86C89.0492 58.26 88.3492 59.98 88.3492 62C88.3492 64.02 89.0492 65.74 90.4492 67.16C91.8692 68.56 93.5892 69.26 95.6092 69.26C97.6292 69.26 99.3492 68.56 100.749 67.16ZM92.0692 65.6C91.1292 64.64 90.6492 63.44 90.6492 62C90.6492 60.56 91.1292 59.36 92.0692 58.42C93.0292 57.46 94.2092 56.98 95.6092 56.98C97.0092 56.98 98.1892 57.46 99.1292 58.42C100.089 59.36 100.569 60.56 100.569 62C100.569 63.44 100.089 64.64 99.1292 65.6C98.1892 66.54 97.0092 67.02 95.6092 67.02C94.2092 67.02 93.0292 66.54 92.0692 65.6ZM117.387 69.26C118.667 69.26 119.847 68.96 120.907 68.36C121.987 67.74 122.827 66.92 123.407 65.9L121.407 64.76C120.687 66.14 119.147 67.02 117.387 67.02C115.887 67.02 114.687 66.54 113.747 65.6C112.827 64.66 112.367 63.46 112.367 62C112.367 60.54 112.827 59.34 113.747 58.4C114.687 57.46 115.887 56.98 117.387 56.98C119.147 56.98 120.667 57.86 121.407 59.24L123.407 58.08C122.207 56.02 119.927 54.74 117.387 54.74C115.287 54.74 113.527 55.44 112.147 56.84C110.767 58.22 110.067 59.94 110.067 62C110.067 64.06 110.767 65.78 112.147 67.18C113.527 68.56 115.287 69.26 117.387 69.26ZM128.018 55H125.718V69H133.718V66.8H128.018V55ZM135.825 69H138.125V55H135.825V69ZM143.623 63.02H149.223V60.84H143.623V57.2H149.723V55H141.323V69H149.823V66.8H143.623V63.02ZM160.728 64.5L154.128 55H152.328V69H154.628V59.5L161.228 69H163.028V55H160.728V64.5ZM165.124 55V57.2H169.084V69H171.384V57.2H175.324V55H165.124ZM191.265 69V66.78H185.465L188.625 63.62C190.205 62 191.005 60.48 191.005 59.06C191.005 57.72 190.565 56.68 189.685 55.9C188.805 55.12 187.745 54.74 186.525 54.74C184.585 54.74 182.885 55.72 182.005 57.58L183.945 58.72C184.505 57.56 185.365 56.98 186.545 56.98C187.805 56.98 188.705 57.78 188.705 59.14C188.705 60 188.105 61.04 186.925 62.22L182.045 67.2V69H191.265Z" fill="white"/>
</svg>
